# xmcd
#
# Track frame offsets:
#	150
#	18675
#	36825
#	52950
#	68328
#	81228
#	99528
#	115880
#	127880
#	145055
#
# Disc length: 2145 seconds
#
# Revision: 2
# Processed by: cddbd v1.5.2PL0 Copyright (c) Steve Scherf et al.
# Submitted via: EasyCDDAExtractor 12.0.0.1
#
DISCID=7d085f0a
DTITLE=Daniela Romo - La Cita - CD 1
DYEAR=1994
DGENRE=Latin
TTITLE0=Amor Mio
TTITLE1=Cien Años
TTITLE2=Voy
TTITLE3=Un Mundo Raro
TTITLE4=La Cita
TTITLE5=De Que Manera Te Olvido
TTITLE6=La Noche De Anoche
TTITLE7=Canta, Canta, Canta
TTITLE8=Que Va
TTITLE9=Mi Amigo El Tiempo
EXTD=
EXTT0=
EXTT1=
EXTT2=
EXTT3=
EXTT4=
EXTT5=
EXTT6=
EXTT7=
EXTT8=
EXTT9=
PLAYORDER=
